<?xml version="1.0" encoding="utf-8"?>
<!-- Generator: Adobe Illustrator 19.0.0, SVG Export Plug-In . SVG Version: 6.00 Build 0)  -->
<svg version="1.1" id="Layer_1" xmlns="http://www.w3.org/2000/svg" xmlns:xlink="http://www.w3.org/1999/xlink" x="0px" y="0px"
	 width="35px" height="33px" viewBox="-682 384 35 33" style="enable-background:new -682 384 35 33;" xml:space="preserve">
<g>
	<path fill="#ffffff" class="st0" d="M-664.9258423,417c-9.0999756,0-16.5999756-7.3999939-16.5999756-16.5c0.0999756-9.1000061,7.5-16.5,16.5-16.5
		c0,0,0,0,0.0999756,0c9,0,16.2999878,7.2000122,16.5,16.1000061c0.0999756,0.2999878,0.2999878,0.6000061,0.4000244,1
		c0.2000122,0.5,0.2999878,1,0.4000244,1.5c0.4000244,2.1000061,0,4.2999878-1.0999756,6.2000122
		c-1.2000122,2.2000122-3.2000122,3.7999878-5.5,4.5l-2.2000122,0.7000122c-0.0999756,0-0.0999756,0-0.2000122,0.1000061
		c-0.5999756,0.2000122-1.2000122,0.2999878-1.7999878,0.3999939C-660.1257935,416-662.4258423,417-664.9258423,417z"/>
</g>
<path fill="#8DA0AE" class="st1" d="M-656.5258179,403.8999939c-0.0999756-0.2999878-0.5-0.5-0.7999878-0.3999939l-0.7999878,0.2999878
	c0.5-1,0.7999878-2.1000061,0.7999878-3.2999878c0-4.1000061-3.4000244-7.5-7.5999756-7.5
	c-4.2000122,0-7.5999756,3.2999878-7.5999756,7.5c0,4.1000061,3.4000244,7.5,7.5999756,7.5
	c0.2999878,0,0.5999756-0.2999878,0.5999756-0.6000061c0-0.2999878-0.2999878-0.6000061-0.5999756-0.6000061l0,0
	c-3.5,0-6.2999878-2.7999878-6.2999878-6.2999878l0,0c0-3.5,2.9000244-6.2999878,6.2999878-6.2999878l0,0
	c3.5,0,6.2999878,2.7999878,6.2999878,6.2999878l0,0c0,1-0.2000122,1.8999939-0.5999756,2.7000122l-0.2999878-0.7999878
	c-0.0999756-0.2999878-0.5-0.5-0.7999878-0.3999939s-0.5,0.3999939-0.4000244,0.7000122l0,0l0.7000122,2.2000122
	c0.0999756,0.2999878,0.5,0.5,0.7999878,0.3999939l2.2999878-0.7000122
	C-656.6257935,404.6000061-656.4258423,404.2000122-656.5258179,403.8999939L-656.5258179,403.8999939z"/>
</svg>
