<svg xmlns="http://www.w3.org/2000/svg" width="18" height="19" viewBox="0 0 18 19"><defs><clipPath id="a"><path fill="#fff" d="M829 569v-19h18v19zm2.9-9.5a6.6 6.6 0 0 0 6.54 6.65 6.6 6.6 0 0 0 6.55-6.65 6.6 6.6 0 0 0-6.55-6.65 6.6 6.6 0 0 0-6.54 6.65z"/></clipPath></defs><path fill="#fff" fill-opacity=".3" d="M9.45 2.85a6.6 6.6 0 0 1 6.54 6.65 6.6 6.6 0 0 1-6.54 6.65A6.6 6.6 0 0 1 2.9 9.5a6.6 6.6 0 0 1 6.55-6.65z"/><path fill="none" stroke="#3fb34f" stroke-linecap="round" stroke-linejoin="round" stroke-miterlimit="50" stroke-width="4" d="M838.45 552.85a6.6 6.6 0 0 1 6.54 6.65 6.6 6.6 0 0 1-6.54 6.65 6.6 6.6 0 0 1-6.55-6.65 6.6 6.6 0 0 1 6.55-6.65z" clip-path="url(&quot;#a&quot;)" transform="translate(-829 -550)"/><path fill="#3fb34f" d="M8.85 11.9a.42.42 0 0 1-.3-.13l-2.12-2a.42.42 0 0 1 0-.6l.3-.3a.42.42 0 0 1 .59 0l1.53 1.45 2.72-2.82a.42.42 0 0 1 .6 0l.29.3c.16.16.16.42 0 .58l-3.31 3.4a.42.42 0 0 1-.3.12z"/></svg>