<svg xmlns="http://www.w3.org/2000/svg" width="18" height="19" viewBox="0 0 18 19"><defs><clipPath id="a"><path fill="#fff" d="M829 569v-19h18v19zm2.01-9.5a6.6 6.6 0 0 0 6.54 6.65 6.6 6.6 0 0 0 6.55-6.65 6.6 6.6 0 0 0-6.55-6.65 6.6 6.6 0 0 0-6.54 6.65z"/></clipPath></defs><path fill="#fff" fill-opacity=".3" d="M8.55 2.85A6.6 6.6 0 0 1 15.1 9.5a6.6 6.6 0 0 1-6.55 6.65A6.6 6.6 0 0 1 2.01 9.5a6.6 6.6 0 0 1 6.54-6.65z"/><path fill="#fff" fill-opacity=".3" d="M8.55 2.85A6.6 6.6 0 0 1 15.1 9.5a6.6 6.6 0 0 1-6.55 6.65A6.6 6.6 0 0 1 2.01 9.5a6.6 6.6 0 0 1 6.54-6.65z"/><path fill="#f3f3f3" d="M8.55 2.85A6.6 6.6 0 0 1 15.1 9.5a6.6 6.6 0 0 1-6.55 6.65A6.6 6.6 0 0 1 2.01 9.5a6.6 6.6 0 0 1 6.54-6.65z"/><path fill="none" stroke="#dedede" stroke-linecap="round" stroke-linejoin="round" stroke-miterlimit="50" stroke-width="4" d="M837.55 552.85a6.6 6.6 0 0 1 6.55 6.65 6.6 6.6 0 0 1-6.55 6.65 6.6 6.6 0 0 1-6.54-6.65 6.6 6.6 0 0 1 6.54-6.65z" clip-path="url(&quot;#a&quot;)" transform="translate(-829 -550)"/></svg>