<svg xmlns="http://www.w3.org/2000/svg" style="border: 0 !important; clip: rect(0 0 0 0) !important; height: 1px !important; margin: -1px !important; overflow: hidden !important; padding: 0 !important; position: absolute !important; width: 1px !important;" class="root-svg-symbols-element">
    <symbol id="point" viewBox="0 0 12 14">
      <path d="M6 .07a5.08 5.08 0 0 0-4.6 7.18c1.26 2.8 3.68 5.74 4.39 6.58.05.06.13.1.21.1.08 0 .16-.04.21-.1.71-.84 3.13-3.78 4.39-6.58A5.08 5.08 0 0 0 6 .06zm0 7.75a2.64 2.64 0 0 1-2.62-2.65A2.64 2.64 0 0 1 6 2.52a2.64 2.64 0 0 1 2.62 2.65A2.64 2.64 0 0 1 6 7.82z"/><path fill="#a03761" d="M6 .07a5.08 5.08 0 0 0-4.6 7.18c1.26 2.8 3.68 5.74 4.39 6.58.05.06.13.1.21.1.08 0 .16-.04.21-.1.71-.84 3.13-3.78 4.39-6.58A5.08 5.08 0 0 0 6 .06zm0 7.75a2.64 2.64 0 0 1-2.62-2.65A2.64 2.64 0 0 1 6 2.52a2.64 2.64 0 0 1 2.62 2.65A2.64 2.64 0 0 1 6 7.82z"/>
    </symbol>
    <symbol id="rss" viewBox="0 0 16 16">
      <path d="M15.2 14.04a1.16 1.16 0 0 1-2.31 0c0-6.02-4.91-10.93-10.94-10.93a1.16 1.16 0 0 1 0-2.31C9.26.8 15.2 6.74 15.2 14.04zm-5.41 0c0 .64-.52 1.16-1.16 1.16-.64 0-1.15-.52-1.15-1.16a5.53 5.53 0 0 0-5.52-5.51 1.16 1.16 0 1 1 0-2.32 7.85 7.85 0 0 1 7.83 7.83zM2.87 11.4c-.95 0-1.72.77-1.72 1.73a1.72 1.72 0 1 0 1.72-1.73z"/><path fill="#fff" d="M15.2 14.04a1.16 1.16 0 0 1-2.31 0c0-6.02-4.91-10.93-10.94-10.93a1.16 1.16 0 0 1 0-2.31C9.26.8 15.2 6.74 15.2 14.04zm-5.41 0c0 .64-.52 1.16-1.16 1.16-.64 0-1.15-.52-1.15-1.16a5.53 5.53 0 0 0-5.52-5.51 1.16 1.16 0 1 1 0-2.32 7.85 7.85 0 0 1 7.83 7.83zM2.87 11.4c-.95 0-1.72.77-1.72 1.73a1.72 1.72 0 1 0 1.72-1.73z"/>
    </symbol>
    <symbol id="search" viewBox="0 0 18 17">
      <path d="M17.17 15.3l-3.95-3.96a6.93 6.93 0 1 0-.97.97l3.95 3.95a.69.69 0 0 0 .97-.96zm-9.31-2.8a5.56 5.56 0 1 1 0-11.11 5.56 5.56 0 0 1 0 11.11z"/><path fill="#fff" d="M17.17 15.3l-3.95-3.96a6.93 6.93 0 1 0-.97.97l3.95 3.95a.69.69 0 0 0 .97-.96zm-9.31-2.8a5.56 5.56 0 1 1 0-11.11 5.56 5.56 0 0 1 0 11.11z"/>
    </symbol></svg>