<svg xmlns="http://www.w3.org/2000/svg" style="border: 0 !important; clip: rect(0 0 0 0) !important; height: 1px !important; margin: -1px !important; overflow: hidden !important; padding: 0 !important; position: absolute !important; width: 1px !important;" class="root-svg-symbols-element">
    <symbol id="info" viewBox="0 0 23 23">
      <path d="M11.49.94a10.57 10.57 0 0 0 0 21.12 10.57 10.57 0 0 0 0-21.12zm0 19.2a8.65 8.65 0 0 1 0-17.28 8.65 8.65 0 0 1 0 17.28zm0-14.72a1.28 1.28 0 1 0 0 2.56 1.28 1.28 0 0 0 0-2.56zm0 4.48a.96.96 0 0 0-.96.96v5.76a.96.96 0 1 0 1.92 0v-5.76a.96.96 0 0 0-.96-.96z"/><path fill="#bbc0c4" d="M11.49.94a10.57 10.57 0 0 0 0 21.12 10.57 10.57 0 0 0 0-21.12zm0 19.2a8.65 8.65 0 0 1 0-17.28 8.65 8.65 0 0 1 0 17.28zm0-14.72a1.28 1.28 0 1 0 0 2.56 1.28 1.28 0 0 0 0-2.56zm0 4.48a.96.96 0 0 0-.96.96v5.76a.96.96 0 1 0 1.92 0v-5.76a.96.96 0 0 0-.96-.96z"/>
    </symbol>
    <symbol id="more" viewBox="-682 384 35 33">
      <path fill="#fff" class="st0" d="M-664.926 417c-9.1 0-16.6-7.4-16.6-16.5.1-9.1 7.5-16.5 16.5-16.5h.1c9 0 16.3 7.2 16.5 16.1.1.3.3.6.4 1 .2.5.3 1 .4 1.5.4 2.1 0 4.3-1.1 6.2a9.41 9.41 0 0 1-5.5 4.5l-2.2.7c-.1 0-.1 0-.2.1-.6.2-1.2.3-1.8.4-1.7 1.5-4 2.5-6.5 2.5z"/><path fill="8DA0AE" class="st1" d="M-656.526 403.9c-.1-.3-.5-.5-.8-.4l-.8.3c.5-1 .8-2.1.8-3.3 0-4.1-3.4-7.5-7.6-7.5-4.2 0-7.6 3.3-7.6 7.5 0 4.1 3.4 7.5 7.6 7.5.3 0 .6-.3.6-.6s-.3-.6-.6-.6c-3.5 0-6.3-2.8-6.3-6.3s2.9-6.3 6.3-6.3c3.5 0 6.3 2.8 6.3 6.3 0 1-.2 1.9-.6 2.7l-.3-.8c-.1-.3-.5-.5-.8-.4s-.5.4-.4.7l.7 2.2c.1.3.5.5.8.4l2.3-.7c.3 0 .5-.4.4-.7z"/>
    </symbol>
    <symbol id="point" viewBox="0 0 12 14">
      <path d="M6 .07a5.08 5.08 0 0 0-4.6 7.18c1.26 2.8 3.68 5.74 4.39 6.58.05.06.13.1.21.1.08 0 .16-.04.21-.1.71-.84 3.13-3.78 4.39-6.58A5.08 5.08 0 0 0 6 .06zm0 7.75a2.64 2.64 0 0 1-2.62-2.65A2.64 2.64 0 0 1 6 2.52a2.64 2.64 0 0 1 2.62 2.65A2.64 2.64 0 0 1 6 7.82z"/><path fill="#a03761" d="M6 .07a5.08 5.08 0 0 0-4.6 7.18c1.26 2.8 3.68 5.74 4.39 6.58.05.06.13.1.21.1.08 0 .16-.04.21-.1.71-.84 3.13-3.78 4.39-6.58A5.08 5.08 0 0 0 6 .06zm0 7.75a2.64 2.64 0 0 1-2.62-2.65A2.64 2.64 0 0 1 6 2.52a2.64 2.64 0 0 1 2.62 2.65A2.64 2.64 0 0 1 6 7.82z"/>
    </symbol>
    <symbol id="rss" viewBox="0 0 16 16">
      <path d="M15.2 14.04a1.16 1.16 0 0 1-2.31 0c0-6.02-4.91-10.93-10.94-10.93a1.16 1.16 0 0 1 0-2.31C9.26.8 15.2 6.74 15.2 14.04zm-5.41 0c0 .64-.52 1.16-1.16 1.16-.64 0-1.15-.52-1.15-1.16a5.53 5.53 0 0 0-5.52-5.51 1.16 1.16 0 1 1 0-2.32 7.85 7.85 0 0 1 7.83 7.83zM2.87 11.4c-.95 0-1.72.77-1.72 1.73a1.72 1.72 0 1 0 1.72-1.73z"/><path fill="#fff" d="M15.2 14.04a1.16 1.16 0 0 1-2.31 0c0-6.02-4.91-10.93-10.94-10.93a1.16 1.16 0 0 1 0-2.31C9.26.8 15.2 6.74 15.2 14.04zm-5.41 0c0 .64-.52 1.16-1.16 1.16-.64 0-1.15-.52-1.15-1.16a5.53 5.53 0 0 0-5.52-5.51 1.16 1.16 0 1 1 0-2.32 7.85 7.85 0 0 1 7.83 7.83zM2.87 11.4c-.95 0-1.72.77-1.72 1.73a1.72 1.72 0 1 0 1.72-1.73z"/>
    </symbol>
    <symbol id="search" viewBox="0 0 18 17">
      <path d="M17.17 15.3l-3.95-3.96a6.93 6.93 0 1 0-.97.97l3.95 3.95a.69.69 0 0 0 .97-.96zm-9.31-2.8a5.56 5.56 0 1 1 0-11.11 5.56 5.56 0 0 1 0 11.11z"/><path fill="#fff" d="M17.17 15.3l-3.95-3.96a6.93 6.93 0 1 0-.97.97l3.95 3.95a.69.69 0 0 0 .97-.96zm-9.31-2.8a5.56 5.56 0 1 1 0-11.11 5.56 5.56 0 0 1 0 11.11z"/>
    </symbol></svg>