<svg xmlns="http://www.w3.org/2000/svg" width="16" height="16" viewBox="0 0 16 16"><path d="M15.2 14.04a1.16 1.16 0 0 1-2.31 0c0-6.02-4.91-10.93-10.94-10.93a1.16 1.16 0 0 1 0-2.31C9.26.8 15.2 6.74 15.2 14.04zm-5.41 0c0 .64-.52 1.16-1.16 1.16-.64 0-1.15-.52-1.15-1.16a5.53 5.53 0 0 0-5.52-5.51 1.16 1.16 0 1 1 0-2.32 7.85 7.85 0 0 1 7.83 7.83zM2.87 11.4c-.95 0-1.72.77-1.72 1.73a1.72 1.72 0 1 0 1.72-1.73z"/><path fill="#fff" d="M15.2 14.04a1.16 1.16 0 0 1-2.31 0c0-6.02-4.91-10.93-10.94-10.93a1.16 1.16 0 0 1 0-2.31C9.26.8 15.2 6.74 15.2 14.04zm-5.41 0c0 .64-.52 1.16-1.16 1.16-.64 0-1.15-.52-1.15-1.16a5.53 5.53 0 0 0-5.52-5.51 1.16 1.16 0 1 1 0-2.32 7.85 7.85 0 0 1 7.83 7.83zM2.87 11.4c-.95 0-1.72.77-1.72 1.73a1.72 1.72 0 1 0 1.72-1.73z"/></svg>