<svg xmlns="http://www.w3.org/2000/svg" width="18" height="15" viewBox="0 0 18 15"><path d="M1.51 2.34h14.98c.34 0 .6-.36.6-.8 0-.43-.26-.79-.6-.79H1.5c-.34 0-.61.36-.61.8 0 .43.27.79.61.79zm0 5.95h14.98c.34 0 .6-.35.6-.79 0-.44-.26-.8-.6-.8H1.5c-.34 0-.61.36-.61.8 0 .44.27.8.61.8zm0 5.96h14.98c.34 0 .6-.36.6-.8 0-.43-.26-.79-.6-.79H1.5c-.34 0-.61.36-.61.8 0 .43.27.79.61.79z"/><path fill="#fff" d="M1.51 2.34h14.98c.34 0 .6-.36.6-.8 0-.43-.26-.79-.6-.79H1.5c-.34 0-.61.36-.61.8 0 .43.27.79.61.79zm0 5.95h14.98c.34 0 .6-.35.6-.79 0-.44-.26-.8-.6-.8H1.5c-.34 0-.61.36-.61.8 0 .44.27.8.61.8zm0 5.96h14.98c.34 0 .6-.36.6-.8 0-.43-.26-.79-.6-.79H1.5c-.34 0-.61.36-.61.8 0 .43.27.79.61.79z"/></svg>