<svg xmlns="http://www.w3.org/2000/svg" width="24" height="18" viewBox="0 0 24 18"><path d="M8.53.98a8.3 8.3 0 0 1 7.34 4.46l-1.28.62a6.75 6.75 0 0 0-6.06-3.68A6.7 6.7 0 0 0 1.76 9a6.7 6.7 0 0 0 6.77 6.62 6.75 6.75 0 0 0 6.06-3.68l1.28.62a8.3 8.3 0 0 1-7.34 4.45C4 17.02.33 13.43.33 9A8.12 8.12 0 0 1 8.54.98zm0 8.72V8.3h12.4L19.3 6.7l1.01-.98L23.66 9l-3.35 3.28-1-.98 1.63-1.6z"/><path fill="#fff" d="M8.53.98a8.3 8.3 0 0 1 7.34 4.46l-1.28.62a6.75 6.75 0 0 0-6.06-3.68A6.7 6.7 0 0 0 1.76 9a6.7 6.7 0 0 0 6.77 6.62 6.75 6.75 0 0 0 6.06-3.68l1.28.62a8.3 8.3 0 0 1-7.34 4.45C4 17.02.33 13.43.33 9A8.12 8.12 0 0 1 8.54.98zm0 8.72V8.3h12.4L19.3 6.7l1.01-.98L23.66 9l-3.35 3.28-1-.98 1.63-1.6z"/></svg>