<svg xmlns="http://www.w3.org/2000/svg" width="16" height="16" viewBox="0 0 16 16"><path d="M.67 8C.3 8 0 8.3 0 8.67v6.67l.05.25.14.2v.02H.2l.21.14.26.05h6.66a.67.67 0 0 0 0-1.33H2.28l12.39-12.4v5.06a.67.67 0 0 0 1.33 0V.67L15.95.4a.67.67 0 0 0-.36-.36L15.33 0H8.67a.67.67 0 0 0 0 1.33h5.05L1.33 13.73V8.66c0-.37-.3-.67-.66-.67z"/><path fill="#666" d="M.67 8C.3 8 0 8.3 0 8.67v6.67l.05.25.14.2v.02H.2l.21.14.26.05h6.66a.67.67 0 0 0 0-1.33H2.28l12.39-12.4v5.06a.67.67 0 0 0 1.33 0V.67L15.95.4a.67.67 0 0 0-.36-.36L15.33 0H8.67a.67.67 0 0 0 0 1.33h5.05L1.33 13.73V8.66c0-.37-.3-.67-.66-.67z"/></svg>