<svg xmlns="http://www.w3.org/2000/svg" width="17" height="17" viewBox="0 0 17 17"><path d="M16.67 15.48l-3.92-4.2c1-1.24 1.56-2.8 1.56-4.42A6.77 6.77 0 0 0 7.65 0 6.77 6.77 0 0 0 1 6.86a6.77 6.77 0 0 0 6.65 6.87c1.38 0 2.7-.43 3.82-1.24l3.95 4.24a.85.85 0 0 0 1.23.02.92.92 0 0 0 .02-1.27zM7.65 1.8a5 5 0 0 1 4.92 5.07 5 5 0 0 1-4.92 5.08 5 5 0 0 1-4.92-5.08A5 5 0 0 1 7.65 1.8z"/><path fill="#999" d="M16.67 15.48l-3.92-4.2c1-1.24 1.56-2.8 1.56-4.42A6.77 6.77 0 0 0 7.65 0 6.77 6.77 0 0 0 1 6.86a6.77 6.77 0 0 0 6.65 6.87c1.38 0 2.7-.43 3.82-1.24l3.95 4.24a.85.85 0 0 0 1.23.02.92.92 0 0 0 .02-1.27zM7.65 1.8a5 5 0 0 1 4.92 5.07 5 5 0 0 1-4.92 5.08 5 5 0 0 1-4.92-5.08A5 5 0 0 1 7.65 1.8z"/></svg>