<svg xmlns="http://www.w3.org/2000/svg" width="24" height="25" viewBox="0 0 24 25"><path d="M17.56 12.18L10.5 7.56a1.04 1.04 0 0 0-.55-.17c-.5 0-.88.4-.88.94v9.34c0 .54.38.94.88.94.18 0 .37-.06.55-.17l7.06-4.63c.29-.19.46-.49.46-.81a.98.98 0 0 0-.46-.82zm-7.13 4.68V9.14l5.9 3.86zM12 1a12.01 12.01 0 0 0 0 24 12.01 12.01 0 0 0 0-24zm0 22.64a10.65 10.65 0 0 1 0-21.28 10.65 10.65 0 0 1 0 21.28z"/><path fill="#666" d="M17.56 12.18L10.5 7.56a1.04 1.04 0 0 0-.55-.17c-.5 0-.88.4-.88.94v9.34c0 .54.38.94.88.94.18 0 .37-.06.55-.17l7.06-4.63c.29-.19.46-.49.46-.81a.98.98 0 0 0-.46-.82zm-7.13 4.68V9.14l5.9 3.86zM12 1a12.01 12.01 0 0 0 0 24 12.01 12.01 0 0 0 0-24zm0 22.64a10.65 10.65 0 0 1 0-21.28 10.65 10.65 0 0 1 0 21.28z"/></svg>