<svg id="Слой_1" data-name="Слой 1" xmlns="http://www.w3.org/2000/svg" xmlns:xlink="http://www.w3.org/1999/xlink" viewBox="0 0 97.05 46.73"><defs><style>.cls-1{fill:none;}.cls-2{fill:#a03761;}.cls-3{fill:#fff;}.cls-4{clip-path:url(#clip-path);}</style><clipPath id="clip-path" transform="translate(-248.77 -398.27)"><rect class="cls-1" x="248.77" y="398.27" width="97.05" height="46.73"/></clipPath></defs><title>logo_svg</title><polygon class="cls-2" points="0.04 0 0 37.25 52.79 46.73 97.05 46.73 97.05 27.96 87.75 0 0.04 0"/><polygon class="cls-3" points="49.29 9.42 30.28 9.42 30.28 13.87 37.22 13.87 37.22 27.89 37.72 27.89 42.34 27.89 42.34 13.87 49.29 13.87 49.29 9.42"/><g class="cls-4"><path class="cls-3" d="M273.46,420.59a6.77,6.77,0,0,0-3.28-12.9h-12v18.48h4.73v-4.72h4.89l3.4,4.72h6.23Zm-0.57-6A2.65,2.65,0,0,1,270,417.1h-7.16v-2.55l-2.36-2.36H270a2.6,2.6,0,0,1,2.84,2.43" transform="translate(-248.77 -398.27)"/><polygon class="cls-3" points="61.08 21.7 62.01 19.38 66.29 9.42 71.33 9.42 63.04 27.89 58.98 27.89 51.17 9.42 56.22 9.42 60.04 19.44 60.95 21.7 61.08 21.7"/><polygon class="cls-3" points="73.52 9.42 73.52 13.91 76.82 13.91 73.52 16.27 73.52 27.89 78.38 27.89 78.38 9.42 73.52 9.42"/></g></svg>