<svg xmlns="http://www.w3.org/2000/svg" style="border: 0 !important; clip: rect(0 0 0 0) !important; height: 1px !important; margin: -1px !important; overflow: hidden !important; padding: 0 !important; position: absolute !important; width: 1px !important;" class="root-svg-symbols-element">
  <defs>
      <filter id="filter" x="199" y="460" width="40" height="32" filterUnits="userSpaceOnUse"><feFlood result="flood" flood-color="#c00"/><feComposite result="composite" operator="in" in2="SourceGraphic"/><feBlend result="blend" in2="SourceGraphic"/></filter>
  </defs>
    <symbol id="arrowLeft" viewBox="0 0 14 12">
      <path d="M5.3 11.14c.32.35.85.35 1.18 0a.86.86 0 0 0 .25-.62.89.89 0 0 0-.25-.61L3.57 6.87h8.89c.46 0 .84-.4.84-.88a.86.86 0 0 0-.84-.87h-8.9l2.92-3.04a.9.9 0 0 0 0-1.24.81.81 0 0 0-1.18 0L.95 5.38a.9.9 0 0 0 0 1.23z"/>
    </symbol>
    <symbol id="arrowRight-light" viewBox="0 0 14 12">
      <path d="M8.7 11.14a.81.81 0 0 1-1.18 0 .89.89 0 0 1-.25-.62c0-.22.08-.44.25-.61l2.91-3.04H1.54a.86.86 0 0 1-.84-.88c0-.48.38-.87.84-.87h8.9L7.51 2.08a.9.9 0 0 1 0-1.24.81.81 0 0 1 1.19 0l4.34 4.54a.9.9 0 0 1 0 1.23z"/><path fill="#fff" d="M8.7 11.14a.81.81 0 0 1-1.18 0 .89.89 0 0 1-.25-.62c0-.22.08-.44.25-.61l2.91-3.04H1.54a.86.86 0 0 1-.84-.88c0-.48.38-.87.84-.87h8.9L7.51 2.08a.9.9 0 0 1 0-1.24.81.81 0 0 1 1.19 0l4.34 4.54a.9.9 0 0 1 0 1.23z"/>
    </symbol>
    <symbol id="arrowRight" viewBox="0 0 14 12">
      <path d="M8.7 11.14a.82.82 0 0 1-1.18 0 .89.89 0 0 1-.25-.62c0-.22.08-.44.25-.61l2.91-3.04H1.54a.86.86 0 0 1-.84-.88c0-.48.37-.87.84-.87h8.9L7.51 2.08a.9.9 0 0 1 0-1.24.81.81 0 0 1 1.18 0l4.35 4.54a.9.9 0 0 1 0 1.23z"/>
    </symbol>
    <symbol id="calendar" viewBox="0 0 18 17">
      <path d="M5 9V7h2v2zm3 0V7h2v2zm4 0V7h1v2zm-7 3v-1h2v1zm3 0v-1h2v1zm4 0v-1h1v1zm5.46-9.9v14.5H.66V2.1h2.52V.4h1.68v1.7h1.68V.4h1.68v1.7H9.9V.4h1.68v1.7h1.68V.4h1.68v1.7zm-1.68 1.71h-.84v.85h-1.68v-.85h-1.68v.85H9.9v-.85H8.22v.85H6.54v-.85H4.86v.85H3.18v-.85h-.84V14.9h13.44z"/><path fill="#666" d="M5 9V7h2v2zm3 0V7h2v2zm4 0V7h1v2zm-7 3v-1h2v1zm3 0v-1h2v1zm4 0v-1h1v1zm5.46-9.9v14.5H.66V2.1h2.52V.4h1.68v1.7h1.68V.4h1.68v1.7H9.9V.4h1.68v1.7h1.68V.4h1.68v1.7zm-1.68 1.71h-.84v.85h-1.68v-.85h-1.68v.85H9.9v-.85H8.22v.85H6.54v-.85H4.86v.85H3.18v-.85h-.84V14.9h13.44z"/>
    </symbol>
    <symbol id="clip" viewBox="0 0 20 18">
      <path d="M4.34 18a3.3 3.3 0 0 1-2.38-1.02 3.55 3.55 0 0 1 0-4.9L12.39 1.33a4.37 4.37 0 0 1 6.3 0C19.54 2.2 20 3.35 20 4.57a4.6 4.6 0 0 1-1.3 3.24l-8.22 8.45a.62.62 0 0 1-.9 0 .66.66 0 0 1 0-.92L17.8 6.9c.6-.62.94-1.44.94-2.32 0-.88-.34-1.7-.94-2.32a3.13 3.13 0 0 0-4.51 0L2.85 12.99a2.22 2.22 0 0 0 0 3.07c.8.82 2.19.82 2.99 0l7-7.2a1.07 1.07 0 0 0 0-1.49 1 1 0 0 0-1.44 0L6.61 12.3a.62.62 0 0 1-.89 0 .66.66 0 0 1 0-.92l4.79-4.92c.89-.91 2.34-.91 3.23 0a2.4 2.4 0 0 1 0 3.32l-7 7.21A3.31 3.31 0 0 1 4.33 18z"/>
    </symbol>
    <symbol id="close" viewBox="0 0 9.82 9.812">
      <path data-name="&#x424;&#x438;&#x433;&#x443;&#x440;&#x430; 2 &#x43A;&#x43E;&#x43F;&#x438;&#x44F;" class="cls-1" d="M-.01.727l.74-.743 9.1 9.1-.74.743zm9.84 0l-.74-.743-9.1 9.1.74.743z"/>
    </symbol>
    <symbol id="dynamic" viewBox="0 0 20 12">
      <path d="M18.19.6c-1.28 0-2.1 1.5-1.51 2.73l-3.4 4.43a1.56 1.56 0 0 0-1.1 0L8.79 3.34C9.39 2.1 8.57.6 7.28.6c-1.27 0-2.1 1.48-1.51 2.73L2.36 7.76C1.25 7.34.1 8.26.1 9.53c0 1.03.77 1.87 1.71 1.87 1.28 0 2.1-1.5 1.51-2.74l3.4-4.43c.35.13.73.14 1.1.01l3.39 4.4c-.6 1.25.22 2.76 1.51 2.76 1.27 0 2.1-1.49 1.51-2.73l3.41-4.43c1.11.41 2.26-.5 2.26-1.77 0-1.03-.77-1.87-1.71-1.87z"/>
    </symbol>
    <symbol id="file" viewBox="0 0 20 18">
      <path d="M4.34 18c-.9 0-1.75-.36-2.38-1.02a3.54 3.54 0 0 1 0-4.9L12.39 1.33a4.38 4.38 0 0 1 6.3 0A4.59 4.59 0 0 1 20 4.58c0 1.22-.46 2.37-1.3 3.24l-8.22 8.45a.62.62 0 0 1-.89 0 .66.66 0 0 1 0-.92L17.8 6.9a3.33 3.33 0 0 0 0-4.64 3.12 3.12 0 0 0-4.51 0L2.85 12.99a2.23 2.23 0 0 0 0 3.07c.8.82 2.19.82 2.99 0l7.01-7.2a1.08 1.08 0 0 0 0-1.49 1 1 0 0 0-1.45 0L6.61 12.3a.61.61 0 0 1-.89 0 .68.68 0 0 1 0-.92l4.79-4.92a2.24 2.24 0 0 1 3.23 0 2.38 2.38 0 0 1 0 3.33l-7.01 7.2A3.3 3.3 0 0 1 4.34 18z"/>
    </symbol>
    <symbol id="hamburger" viewBox="0 0 18 15">
      <path d="M1.51 2.34h14.98c.34 0 .6-.36.6-.8 0-.43-.26-.79-.6-.79H1.5c-.34 0-.61.36-.61.8 0 .43.27.79.61.79zm0 5.95h14.98c.34 0 .6-.35.6-.79 0-.44-.26-.8-.6-.8H1.5c-.34 0-.61.36-.61.8 0 .44.27.8.61.8zm0 5.96h14.98c.34 0 .6-.36.6-.8 0-.43-.26-.79-.6-.79H1.5c-.34 0-.61.36-.61.8 0 .43.27.79.61.79z"/><path fill="#fff" d="M1.51 2.34h14.98c.34 0 .6-.36.6-.8 0-.43-.26-.79-.6-.79H1.5c-.34 0-.61.36-.61.8 0 .43.27.79.61.79zm0 5.95h14.98c.34 0 .6-.35.6-.79 0-.44-.26-.8-.6-.8H1.5c-.34 0-.61.36-.61.8 0 .44.27.8.61.8zm0 5.96h14.98c.34 0 .6-.36.6-.8 0-.43-.26-.79-.6-.79H1.5c-.34 0-.61.36-.61.8 0 .43.27.79.61.79z"/>
    </symbol>
    <symbol id="logout" viewBox="0 0 24 18">
      <path d="M8.53.98a8.3 8.3 0 0 1 7.34 4.46l-1.28.62a6.75 6.75 0 0 0-6.06-3.68A6.7 6.7 0 0 0 1.76 9a6.7 6.7 0 0 0 6.77 6.62 6.75 6.75 0 0 0 6.06-3.68l1.28.62a8.3 8.3 0 0 1-7.34 4.45C4 17.02.33 13.43.33 9A8.12 8.12 0 0 1 8.54.98zm0 8.72V8.3h12.4L19.3 6.7l1.01-.98L23.66 9l-3.35 3.28-1-.98 1.63-1.6z"/><path fill="#fff" d="M8.53.98a8.3 8.3 0 0 1 7.34 4.46l-1.28.62a6.75 6.75 0 0 0-6.06-3.68A6.7 6.7 0 0 0 1.76 9a6.7 6.7 0 0 0 6.77 6.62 6.75 6.75 0 0 0 6.06-3.68l1.28.62a8.3 8.3 0 0 1-7.34 4.45C4 17.02.33 13.43.33 9A8.12 8.12 0 0 1 8.54.98zm0 8.72V8.3h12.4L19.3 6.7l1.01-.98L23.66 9l-3.35 3.28-1-.98 1.63-1.6z"/>
    </symbol>
    <symbol id="resize" viewBox="0 0 16 16">
      <path d="M.67 8C.3 8 0 8.3 0 8.67v6.67l.05.25.14.2v.02H.2l.21.14.26.05h6.66a.67.67 0 0 0 0-1.33H2.28l12.39-12.4v5.06a.67.67 0 0 0 1.33 0V.67L15.95.4a.67.67 0 0 0-.36-.36L15.33 0H8.67a.67.67 0 0 0 0 1.33h5.05L1.33 13.73V8.66c0-.37-.3-.67-.66-.67z"/><path fill="#666" d="M.67 8C.3 8 0 8.3 0 8.67v6.67l.05.25.14.2v.02H.2l.21.14.26.05h6.66a.67.67 0 0 0 0-1.33H2.28l12.39-12.4v5.06a.67.67 0 0 0 1.33 0V.67L15.95.4a.67.67 0 0 0-.36-.36L15.33 0H8.67a.67.67 0 0 0 0 1.33h5.05L1.33 13.73V8.66c0-.37-.3-.67-.66-.67z"/>
    </symbol>
    <symbol id="search" viewBox="0 0 17 17">
      <path d="M16.67 15.48l-3.92-4.2c1-1.24 1.56-2.8 1.56-4.42A6.77 6.77 0 0 0 7.65 0 6.77 6.77 0 0 0 1 6.86a6.77 6.77 0 0 0 6.65 6.87c1.38 0 2.7-.43 3.82-1.24l3.95 4.24a.85.85 0 0 0 1.23.02.92.92 0 0 0 .02-1.27zM7.65 1.8a5 5 0 0 1 4.92 5.07 5 5 0 0 1-4.92 5.08 5 5 0 0 1-4.92-5.08A5 5 0 0 1 7.65 1.8z"/><path fill="#999" d="M16.67 15.48l-3.92-4.2c1-1.24 1.56-2.8 1.56-4.42A6.77 6.77 0 0 0 7.65 0 6.77 6.77 0 0 0 1 6.86a6.77 6.77 0 0 0 6.65 6.87c1.38 0 2.7-.43 3.82-1.24l3.95 4.24a.85.85 0 0 0 1.23.02.92.92 0 0 0 .02-1.27zM7.65 1.8a5 5 0 0 1 4.92 5.07 5 5 0 0 1-4.92 5.08 5 5 0 0 1-4.92-5.08A5 5 0 0 1 7.65 1.8z"/>
    </symbol>
    <symbol id="video" viewBox="0 0 24 25">
      <path d="M17.56 12.18L10.5 7.56a1.04 1.04 0 0 0-.55-.17c-.5 0-.88.4-.88.94v9.34c0 .54.38.94.88.94.18 0 .37-.06.55-.17l7.06-4.63c.29-.19.46-.49.46-.81a.98.98 0 0 0-.46-.82zm-7.13 4.68V9.14l5.9 3.86zM12 1a12.01 12.01 0 0 0 0 24 12.01 12.01 0 0 0 0-24zm0 22.64a10.65 10.65 0 0 1 0-21.28 10.65 10.65 0 0 1 0 21.28z"/><path fill="#666" d="M17.56 12.18L10.5 7.56a1.04 1.04 0 0 0-.55-.17c-.5 0-.88.4-.88.94v9.34c0 .54.38.94.88.94.18 0 .37-.06.55-.17l7.06-4.63c.29-.19.46-.49.46-.81a.98.98 0 0 0-.46-.82zm-7.13 4.68V9.14l5.9 3.86zM12 1a12.01 12.01 0 0 0 0 24 12.01 12.01 0 0 0 0-24zm0 22.64a10.65 10.65 0 0 1 0-21.28 10.65 10.65 0 0 1 0 21.28z"/>
    </symbol>
    <symbol id="youtube" viewBox="0 0 40 32">
      <path id="Forma_1" data-name="Forma 1" class="cls-1" d="M235 460.8c-1.2-.4-8.6-.8-16-.8s-14.8.4-16 .8c-3.2 1-4 8-4 15.2s.8 14.2 4 15.2c1.2.4 8.6.8 16 .8s14.8-.4 16-.8c3.2-1 4-8 4-15.2s-.8-14.2-4-15.2zM215 485v-18l12 9z" transform="translate(-199 -460)"/>
    </symbol></svg>