<svg xmlns="http://www.w3.org/2000/svg" style="border: 0 !important; clip: rect(0 0 0 0) !important; height: 1px !important; margin: -1px !important; overflow: hidden !important; padding: 0 !important; position: absolute !important; width: 1px !important;" class="root-svg-symbols-element">
    <symbol id="arrowRight-light" viewBox="0 0 14 12">
      <path d="M8.7 11.14a.81.81 0 0 1-1.18 0 .89.89 0 0 1-.25-.62c0-.22.08-.44.25-.61l2.91-3.04H1.54a.86.86 0 0 1-.84-.88c0-.48.38-.87.84-.87h8.9L7.51 2.08a.9.9 0 0 1 0-1.24.81.81 0 0 1 1.19 0l4.34 4.54a.9.9 0 0 1 0 1.23z"/><path fill="#fff" d="M8.7 11.14a.81.81 0 0 1-1.18 0 .89.89 0 0 1-.25-.62c0-.22.08-.44.25-.61l2.91-3.04H1.54a.86.86 0 0 1-.84-.88c0-.48.38-.87.84-.87h8.9L7.51 2.08a.9.9 0 0 1 0-1.24.81.81 0 0 1 1.19 0l4.34 4.54a.9.9 0 0 1 0 1.23z"/>
    </symbol>
    <symbol id="arrowRight" viewBox="0 0 14 12">
      <path d="M8.7 11.14a.82.82 0 0 1-1.18 0 .89.89 0 0 1-.25-.62c0-.22.08-.44.25-.61l2.91-3.04H1.54a.86.86 0 0 1-.84-.88c0-.48.37-.87.84-.87h8.9L7.51 2.08a.9.9 0 0 1 0-1.24.81.81 0 0 1 1.18 0l4.35 4.54a.9.9 0 0 1 0 1.23z"/>
    </symbol>
    <symbol id="hamburger" viewBox="0 0 18 15">
      <path d="M1.51 2.34h14.98c.34 0 .6-.36.6-.8 0-.43-.26-.79-.6-.79H1.5c-.34 0-.61.36-.61.8 0 .43.27.79.61.79zm0 5.95h14.98c.34 0 .6-.35.6-.79 0-.44-.26-.8-.6-.8H1.5c-.34 0-.61.36-.61.8 0 .44.27.8.61.8zm0 5.96h14.98c.34 0 .6-.36.6-.8 0-.43-.26-.79-.6-.79H1.5c-.34 0-.61.36-.61.8 0 .43.27.79.61.79z"/><path fill="#fff" d="M1.51 2.34h14.98c.34 0 .6-.36.6-.8 0-.43-.26-.79-.6-.79H1.5c-.34 0-.61.36-.61.8 0 .43.27.79.61.79zm0 5.95h14.98c.34 0 .6-.35.6-.79 0-.44-.26-.8-.6-.8H1.5c-.34 0-.61.36-.61.8 0 .44.27.8.61.8zm0 5.96h14.98c.34 0 .6-.36.6-.8 0-.43-.26-.79-.6-.79H1.5c-.34 0-.61.36-.61.8 0 .43.27.79.61.79z"/>
    </symbol>
    <symbol id="logout" viewBox="0 0 24 18">
      <path d="M8.53.98a8.3 8.3 0 0 1 7.34 4.46l-1.28.62a6.75 6.75 0 0 0-6.06-3.68A6.7 6.7 0 0 0 1.76 9a6.7 6.7 0 0 0 6.77 6.62 6.75 6.75 0 0 0 6.06-3.68l1.28.62a8.3 8.3 0 0 1-7.34 4.45C4 17.02.33 13.43.33 9A8.12 8.12 0 0 1 8.54.98zm0 8.72V8.3h12.4L19.3 6.7l1.01-.98L23.66 9l-3.35 3.28-1-.98 1.63-1.6z"/><path fill="#fff" d="M8.53.98a8.3 8.3 0 0 1 7.34 4.46l-1.28.62a6.75 6.75 0 0 0-6.06-3.68A6.7 6.7 0 0 0 1.76 9a6.7 6.7 0 0 0 6.77 6.62 6.75 6.75 0 0 0 6.06-3.68l1.28.62a8.3 8.3 0 0 1-7.34 4.45C4 17.02.33 13.43.33 9A8.12 8.12 0 0 1 8.54.98zm0 8.72V8.3h12.4L19.3 6.7l1.01-.98L23.66 9l-3.35 3.28-1-.98 1.63-1.6z"/>
    </symbol></svg>