<?xml version="1.0" encoding="utf-8"?>
<!-- Generator: Adobe Illustrator 19.0.0, SVG Export Plug-In . SVG Version: 6.00 Build 0)  -->
<svg version="1.1" id="Layer_1" xmlns="http://www.w3.org/2000/svg" xmlns:xlink="http://www.w3.org/1999/xlink" x="0px" y="0px"
	 viewBox="-290 414.9 14 12" style="enable-background:new -290 414.9 14 12;" xml:space="preserve">
<path d="M-277,420.3l-4.3-4.5c0,0,0,0,0,0c-0.3-0.3-0.8-0.3-1.1,0c-0.3,0.3-0.3,0.9,0,1.2l2.9,3h-8.9
	c-0.5,0-0.8,0.4-0.8,0.9c0,0,0,0,0,0c0,0.5,0.4,0.9,0.8,0.9h8.9l-2.9,3c-0.2,0.2-0.3,0.4-0.3,0.6c0,0.2,0.1,0.5,0.3,0.6c0,0,0,0,0,0
	c0.3,0.3,0.8,0.3,1.2,0l4.3-4.5C-276.6,421.2-276.6,420.6-277,420.3z"/>
</svg>
