<?xml version="1.0" encoding="utf-8"?>
<!-- Generator: Adobe Illustrator 19.0.0, SVG Export Plug-In . SVG Version: 6.00 Build 0)  -->
<svg version="1.1" id="Layer_1" xmlns="http://www.w3.org/2000/svg" xmlns:xlink="http://www.w3.org/1999/xlink" x="0px" y="0px"
	 viewBox="-289 412.9 17 17" style="enable-background:new -289 412.9 17 17;" xml:space="preserve">
<path fill="#999999" d="M-272.3,428.4l-3.9-4.2c1-1.2,1.6-2.8,1.6-4.4c0.1-3.7-2.9-6.8-6.7-6.9c-3.7,0.1-6.7,3.1-6.6,6.9
	c-0.1,3.7,2.9,6.8,6.6,6.9c1.4,0,2.7-0.4,3.8-1.2l4,4.2c0.3,0.3,0.9,0.4,1.2,0c0,0,0,0,0,0C-272,429.3-272,428.7-272.3,428.4z
	 M-281.4,414.7c2.8,0,5,2.3,4.9,5.1c0,2.8-2.2,5-4.9,5.1c0,0,0,0,0,0c-2.8,0-5-2.3-4.9-5.1c0,0,0,0,0,0
	C-286.3,417-284.1,414.7-281.4,414.7z"/>
</svg>
