<svg xmlns="http://www.w3.org/2000/svg" width="26" height="26" viewBox="0 0 26 26"><path d="M13.63 25.34l11.71-11.71c.15-.15.26-.4.26-.63 0-.24-.1-.48-.26-.63L13.63.65a.89.89 0 0 0-1.26 1.26l10.2 10.2H1.28c-.5 0-.89.4-.89.89 0 .5.39.89.89.89h21.27l-10.19 10.2a.89.89 0 0 0 0 1.25c.35.35.91.33 1.26 0z"/><path fill="#50687b" d="M13.63 25.34l11.71-11.71c.15-.15.26-.4.26-.63 0-.24-.1-.48-.26-.63L13.63.65a.89.89 0 0 0-1.26 1.26l10.2 10.2H1.28c-.5 0-.89.4-.89.89 0 .5.39.89.89.89h21.27l-10.19 10.2a.89.89 0 0 0 0 1.25c.35.35.91.33 1.26 0z"/></svg>