<svg xmlns="http://www.w3.org/2000/svg" width="35" height="33" viewBox="-682 384 35 33"><path fill="#fff" class="st0" d="M-664.926 417c-9.1 0-16.6-7.4-16.6-16.5.1-9.1 7.5-16.5 16.5-16.5h.1c9 0 16.3 7.2 16.5 16.1.1.3.3.6.4 1 .2.5.3 1 .4 1.5.4 2.1 0 4.3-1.1 6.2a9.41 9.41 0 0 1-5.5 4.5l-2.2.7c-.1 0-.1 0-.2.1-.6.2-1.2.3-1.8.4-1.7 1.5-4 2.5-6.5 2.5z"/><path fill="8DA0AE" class="st1" d="M-656.526 403.9c-.1-.3-.5-.5-.8-.4l-.8.3c.5-1 .8-2.1.8-3.3 0-4.1-3.4-7.5-7.6-7.5-4.2 0-7.6 3.3-7.6 7.5 0 4.1 3.4 7.5 7.6 7.5.3 0 .6-.3.6-.6s-.3-.6-.6-.6c-3.5 0-6.3-2.8-6.3-6.3s2.9-6.3 6.3-6.3c3.5 0 6.3 2.8 6.3 6.3 0 1-.2 1.9-.6 2.7l-.3-.8c-.1-.3-.5-.5-.8-.4s-.5.4-.4.7l.7 2.2c.1.3.5.5.8.4l2.3-.7c.3 0 .5-.4.4-.7z"/></svg>