<svg xmlns="http://www.w3.org/2000/svg" width="12" height="14" viewBox="0 0 12 14"><path d="M6 .07a5.08 5.08 0 0 0-4.6 7.18c1.26 2.8 3.68 5.74 4.39 6.58.05.06.13.1.21.1.08 0 .16-.04.21-.1.71-.84 3.13-3.78 4.39-6.58A5.08 5.08 0 0 0 6 .06zm0 7.75a2.64 2.64 0 0 1-2.62-2.65A2.64 2.64 0 0 1 6 2.52a2.64 2.64 0 0 1 2.62 2.65A2.64 2.64 0 0 1 6 7.82z"/><path fill="#a03761" d="M6 .07a5.08 5.08 0 0 0-4.6 7.18c1.26 2.8 3.68 5.74 4.39 6.58.05.06.13.1.21.1.08 0 .16-.04.21-.1.71-.84 3.13-3.78 4.39-6.58A5.08 5.08 0 0 0 6 .06zm0 7.75a2.64 2.64 0 0 1-2.62-2.65A2.64 2.64 0 0 1 6 2.52a2.64 2.64 0 0 1 2.62 2.65A2.64 2.64 0 0 1 6 7.82z"/></svg>