<svg xmlns="http://www.w3.org/2000/svg" width="34.97" height="33" viewBox="0 0 34.97 33"><defs><clipPath id="a"><path fill="#fff" d="M268.02 1920v-33h34.96v33zm24.97-13.1a.63.63 0 0 0-.78-.4l-.8.26a7.4 7.4 0 0 0 .75-3.26c0-4.14-3.4-7.5-7.58-7.5a7.55 7.55 0 0 0-7.58 7.5c0 4.14 3.4 7.5 7.58 7.5.34 0 .62-.28.62-.61a.62.62 0 0 0-.62-.62 6.3 6.3 0 0 1-6.34-6.27 6.3 6.3 0 0 1 6.34-6.27 6.3 6.3 0 0 1 6.34 6.27c0 .95-.22 1.89-.64 2.73l-.27-.84a.62.62 0 0 0-.79-.39.6.6 0 0 0-.4.77l.74 2.23a.63.63 0 0 0 .78.4l2.26-.73a.6.6 0 0 0 .4-.77z"/></clipPath></defs><path d="M24.98 19.9a.63.63 0 0 0-.78-.4l-.81.26a7.4 7.4 0 0 0 .75-3.26c0-4.14-3.4-7.5-7.58-7.5a7.55 7.55 0 0 0-7.58 7.5c0 4.14 3.4 7.5 7.58 7.5.35 0 .62-.28.62-.61a.62.62 0 0 0-.62-.62 6.3 6.3 0 0 1-6.33-6.27 6.3 6.3 0 0 1 6.33-6.27 6.3 6.3 0 0 1 6.34 6.27c0 .95-.22 1.89-.63 2.73l-.28-.84a.62.62 0 0 0-.78-.39.6.6 0 0 0-.4.77l.73 2.23a.63.63 0 0 0 .78.4l2.26-.73a.6.6 0 0 0 .4-.77z"/><path d="M24.98 19.9a.63.63 0 0 0-.78-.4l-.81.26a7.4 7.4 0 0 0 .75-3.26c0-4.14-3.4-7.5-7.58-7.5a7.55 7.55 0 0 0-7.58 7.5c0 4.14 3.4 7.5 7.58 7.5.35 0 .62-.28.62-.61a.62.62 0 0 0-.62-.62 6.3 6.3 0 0 1-6.33-6.27 6.3 6.3 0 0 1 6.33-6.27 6.3 6.3 0 0 1 6.34 6.27c0 .95-.22 1.89-.63 2.73l-.28-.84a.62.62 0 0 0-.78-.39.6.6 0 0 0-.4.77l.73 2.23a.63.63 0 0 0 .78.4l2.26-.73a.6.6 0 0 0 .4-.77z"/><path fill="#8da0ae" d="M24.98 19.9a.63.63 0 0 0-.78-.4l-.81.26a7.4 7.4 0 0 0 .75-3.26c0-4.14-3.4-7.5-7.58-7.5a7.55 7.55 0 0 0-7.58 7.5c0 4.14 3.4 7.5 7.58 7.5.35 0 .62-.28.62-.61a.62.62 0 0 0-.62-.62 6.3 6.3 0 0 1-6.33-6.27 6.3 6.3 0 0 1 6.33-6.27 6.3 6.3 0 0 1 6.34 6.27c0 .95-.22 1.89-.63 2.73l-.28-.84a.62.62 0 0 0-.78-.39.6.6 0 0 0-.4.77l.73 2.23a.63.63 0 0 0 .78.4l2.26-.73a.6.6 0 0 0 .4-.77z"/><path fill="none" stroke="#fff" stroke-linecap="round" stroke-linejoin="round" stroke-miterlimit="50" stroke-width="18" d="M293 1906.9a.63.63 0 0 0-.79-.4l-.8.26a7.4 7.4 0 0 0 .75-3.26c0-4.14-3.4-7.5-7.58-7.5a7.55 7.55 0 0 0-7.58 7.5c0 4.14 3.4 7.5 7.58 7.5.34 0 .62-.28.62-.61a.62.62 0 0 0-.62-.62 6.3 6.3 0 0 1-6.34-6.27 6.3 6.3 0 0 1 6.34-6.27 6.3 6.3 0 0 1 6.34 6.27c0 .95-.22 1.89-.64 2.73l-.27-.84a.62.62 0 0 0-.79-.39.6.6 0 0 0-.4.77l.74 2.23a.63.63 0 0 0 .78.4l2.26-.73a.6.6 0 0 0 .4-.77z" clip-path="url(&quot;#a&quot;)" transform="translate(-268.02 -1887)"/></svg>