<svg xmlns="http://www.w3.org/2000/svg" viewBox="0 0 99.21 99.21"><defs><style>.cls-1,.cls-2{fill:#fff;}.cls-1{opacity:0.5;}.cls-2{fill-rule:evenodd;}</style></defs><title>play_time</title><polygon class="cls-1" points="98.18 60.49 98.18 98.18 1.04 98.18 1.04 1.04 98.18 1.04 98.18 38.73 99.21 38.73 99.21 0 0 0 0 99.21 99.21 99.21 99.21 60.49 98.18 60.49"/><g id="Forma_1" data-name="Forma 1"><path class="cls-2" d="M63.71,48.91L36.57,32.11a1,1,0,0,0-1-.05,0.83,0.83,0,0,0-.5.74V66.4a0.83,0.83,0,0,0,.5.74,1,1,0,0,0,.44.1,1,1,0,0,0,.53-0.15L63.71,50.3A0.79,0.79,0,0,0,63.71,48.91ZM37,64.8V34.41l24.56,15.2Z" transform="translate(0 0)"/></g></svg>