<svg xmlns="http://www.w3.org/2000/svg" width="94" height="94" viewBox="0 0 94 94"><path fill="transparent" d="M0 94V0h94v94z"/><path fill="#000" fill-opacity=".46" d="M0 94V0h94v94z"/><path d="M61.46 46.71l-23.7-15.15c-.46-.29-1.03-.3-1.5-.04-.47.27-.77.78-.77 1.33v30.3c0 .55.3 1.05.77 1.32a1.44 1.44 0 0 0 1.5-.04l23.7-15.15c.43-.28.69-.76.69-1.28 0-.53-.26-1.01-.69-1.29zm-23 13.7V35.58L57.88 48z"/><path fill="#fff" d="M61.46 46.71l-23.7-15.15c-.46-.29-1.03-.3-1.5-.04-.47.27-.77.78-.77 1.33v30.3c0 .55.3 1.05.77 1.32a1.44 1.44 0 0 0 1.5-.04l23.7-15.15c.43-.28.69-.76.69-1.28 0-.53-.26-1.01-.69-1.29zm-23 13.7V35.58L57.88 48z"/></svg>